<svg id="visual" viewBox="0 0 900 600" width="900" height="600" xmlns="http://www.w3.org/2000/svg" xmlns:xlink="http://www.w3.org/1999/xlink" version="1.1"><rect x="0" y="0" width="900" height="600" fill="#eeeeee"></rect><path d="M0 268L30 266.8C60 265.7 120 263.3 180 263.7C240 264 300 267 360 279.5C420 292 480 314 540 306.3C600 298.7 660 261.3 720 256.8C780 252.3 840 280.7 870 294.8L900 309L900 601L870 601C840 601 780 601 720 601C660 601 600 601 540 601C480 601 420 601 360 601C300 601 240 601 180 601C120 601 60 601 30 601L0 601Z" fill="#015cab"></path><path d="M0 276L30 286.8C60 297.7 120 319.3 180 331.3C240 343.3 300 345.7 360 349.2C420 352.7 480 357.3 540 347.8C600 338.3 660 314.7 720 294.2C780 273.7 840 256.3 870 247.7L900 239L900 601L870 601C840 601 780 601 720 601C660 601 600 601 540 601C480 601 420 601 360 601C300 601 240 601 180 601C120 601 60 601 30 601L0 601Z" fill="#006ab8"></path><path d="M0 395L30 395.5C60 396 120 397 180 387.3C240 377.7 300 357.3 360 348.7C420 340 480 343 540 348C600 353 660 360 720 365.5C780 371 840 375 870 377L900 379L900 601L870 601C840 601 780 601 720 601C660 601 600 601 540 601C480 601 420 601 360 601C300 601 240 601 180 601C120 601 60 601 30 601L0 601Z" fill="#0077c5"></path><path d="M0 379L30 372.2C60 365.3 120 351.7 180 356.8C240 362 300 386 360 394C420 402 480 394 540 391.2C600 388.3 660 390.7 720 384C780 377.3 840 361.7 870 353.8L900 346L900 601L870 601C840 601 780 601 720 601C660 601 600 601 540 601C480 601 420 601 360 601C300 601 240 601 180 601C120 601 60 601 30 601L0 601Z" fill="#0085d1"></path><path d="M0 407L30 412.8C60 418.7 120 430.3 180 434.2C240 438 300 434 360 438C420 442 480 454 540 446.3C600 438.7 660 411.3 720 401.2C780 391 840 398 870 401.5L900 405L900 601L870 601C840 601 780 601 720 601C660 601 600 601 540 601C480 601 420 601 360 601C300 601 240 601 180 601C120 601 60 601 30 601L0 601Z" fill="#0093dd"></path><path d="M0 445L30 451.3C60 457.7 120 470.3 180 468.2C240 466 300 449 360 452.3C420 455.7 480 479.3 540 489.5C600 499.7 660 496.3 720 488.5C780 480.7 840 468.3 870 462.2L900 456L900 601L870 601C840 601 780 601 720 601C660 601 600 601 540 601C480 601 420 601 360 601C300 601 240 601 180 601C120 601 60 601 30 601L0 601Z" fill="#00a1e9"></path><path d="M0 501L30 496.7C60 492.3 120 483.7 180 482.2C240 480.7 300 486.3 360 487.5C420 488.7 480 485.3 540 489.2C600 493 660 504 720 513C780 522 840 529 870 532.5L900 536L900 601L870 601C840 601 780 601 720 601C660 601 600 601 540 601C480 601 420 601 360 601C300 601 240 601 180 601C120 601 60 601 30 601L0 601Z" fill="#00b0f4"></path><path d="M0 554L30 556.5C60 559 120 564 180 566.2C240 568.3 300 567.7 360 566.3C420 565 480 563 540 555.7C600 548.3 660 535.7 720 531.2C780 526.7 840 530.3 870 532.2L900 534L900 601L870 601C840 601 780 601 720 601C660 601 600 601 540 601C480 601 420 601 360 601C300 601 240 601 180 601C120 601 60 601 30 601L0 601Z" fill="#00beff"></path></svg>